REM DIRINDEX 1\2\5,1\2\6,1\3\7,1\3\8,1\4\9,1\4\10
REM DIRNAME cjc079,folder01,folder02,folder03,folder04,folder05,folder06,folder07,folder08,folder09
TITLE ""
FILE "Track20.mp3" MP3
  TRACK 01 AUDIO
    TITLE "8:cjc079_0531"
    INDEX 01 00:00:00
  TRACK 02 AUDIO
    TITLE "8:cjc079_0532"
    INDEX 01 00:02:30
  TRACK 03 AUDIO
    TITLE "7:cjc079_0533"
    INDEX 01 00:04:31
  TRACK 04 AUDIO
    TITLE "0:"
    INDEX 01 00:05:42
  TRACK 05 AUDIO
    TITLE "7:cjc079_0534"
    INDEX 01 00:06:20
  TRACK 06 AUDIO
    TITLE "0:"
    INDEX 01 00:07:31
  TRACK 07 AUDIO
    TITLE "7:cjc079_0535"
    INDEX 01 00:09:08
  TRACK 08 AUDIO
    TITLE "0:"
    INDEX 01 00:10:27
  TRACK 09 AUDIO
    TITLE "7:cjc079_0536"
    INDEX 01 00:11:01
  TRACK 10 AUDIO
    TITLE "0:"
    INDEX 01 00:12:20
  TRACK 11 AUDIO
    TITLE "7:cjc079_0537"
    INDEX 01 00:13:73
  TRACK 12 AUDIO
    TITLE "0:"
    INDEX 01 00:15:21
  TRACK 13 AUDIO
    TITLE "7:cjc079_0538"
    INDEX 01 00:15:74
  TRACK 14 AUDIO
    TITLE "0:"
    INDEX 01 00:17:23
  TRACK 15 AUDIO
    TITLE "7:cjc079_0539"
    INDEX 01 00:19:03
  TRACK 16 AUDIO
    TITLE "0:"
    INDEX 01 00:20:16
  TRACK 17 AUDIO
    TITLE "7:cjc079_0540"
    INDEX 01 00:20:73
  TRACK 18 AUDIO
    TITLE "0:"
    INDEX 01 00:22:13
  TRACK 19 AUDIO
    TITLE "8:cjc079_0541"
    INDEX 01 00:23:65
  TRACK 20 AUDIO
    TITLE "7:cjc079_0542"
    INDEX 01 00:25:74
  TRACK 21 AUDIO
    TITLE "0:"
    INDEX 01 00:27:12
  TRACK 22 AUDIO
    TITLE "7:cjc079_0543"
    INDEX 01 00:27:65
  TRACK 23 AUDIO
    TITLE "0:"
    INDEX 01 00:29:01
  TRACK 24 AUDIO
    TITLE "7:cjc079_0544"
    INDEX 01 00:30:55
  TRACK 25 AUDIO
    TITLE "0:"
    INDEX 01 00:31:55
  TRACK 26 AUDIO
    TITLE "7:cjc079_0545"
    INDEX 01 00:32:29
  TRACK 27 AUDIO
    TITLE "0:"
    INDEX 01 00:33:30
  TRACK 28 AUDIO
    TITLE "7:cjc079_0546"
    INDEX 01 00:35:10
  TRACK 29 AUDIO
    TITLE "0:"
    INDEX 01 00:36:13
  TRACK 30 AUDIO
    TITLE "7:cjc079_0547"
    INDEX 01 00:36:72
  TRACK 31 AUDIO
    TITLE "0:"
    INDEX 01 00:37:73
  TRACK 32 AUDIO
    TITLE "7:cjc079_0548"
    INDEX 01 00:39:56
  TRACK 33 AUDIO
    TITLE "0:"
    INDEX 01 00:40:72
  TRACK 34 AUDIO
    TITLE "7:cjc079_0549"
    INDEX 01 00:41:49
  TRACK 35 AUDIO
    TITLE "0:"
    INDEX 01 00:42:63
  TRACK 36 AUDIO
    TITLE "8:cjc079_0550"
    INDEX 01 00:44:38
  TRACK 37 AUDIO
    TITLE "7:cjc079_0551"
    INDEX 01 00:46:41
  TRACK 38 AUDIO
    TITLE "0:"
    INDEX 01 00:47:38
  TRACK 39 AUDIO
    TITLE "7:cjc079_0552"
    INDEX 01 00:48:12
  TRACK 40 AUDIO
    TITLE "0:"
    INDEX 01 00:49:10
  TRACK 41 AUDIO
    TITLE "7:cjc079_0553"
    INDEX 01 00:50:62
  TRACK 42 AUDIO
    TITLE "0:"
    INDEX 01 00:51:71
  TRACK 43 AUDIO
    TITLE "7:cjc079_0554"
    INDEX 01 00:52:49
  TRACK 44 AUDIO
    TITLE "0:"
    INDEX 01 00:53:58
  TRACK 45 AUDIO
    TITLE "7:cjc079_0555"
    INDEX 01 00:55:36
  TRACK 46 AUDIO
    TITLE "0:"
    INDEX 01 00:56:43
  TRACK 47 AUDIO
    TITLE "7:cjc079_0556"
    INDEX 01 00:57:17
  TRACK 48 AUDIO
    TITLE "0:"
    INDEX 01 00:58:24
  TRACK 49 AUDIO
    TITLE "7:cjc079_0557"
    INDEX 01 00:59:73
  TRACK 50 AUDIO
    TITLE "0:"
    INDEX 01 01:01:15
  TRACK 51 AUDIO
    TITLE "7:cjc079_0558"
    INDEX 01 01:01:68
  TRACK 52 AUDIO
    TITLE "0:"
    INDEX 01 01:03:10
  TRACK 53 AUDIO
    TITLE "8:cjc079_0559"
    INDEX 01 01:04:60
  TRACK 54 AUDIO
    TITLE "7:cjc079_0560"
    INDEX 01 01:06:65
  TRACK 55 AUDIO
    TITLE "0:"
    INDEX 01 01:08:03
  TRACK 56 AUDIO
    TITLE "7:cjc079_0561"
    INDEX 01 01:08:50
  TRACK 57 AUDIO
    TITLE "0:"
    INDEX 01 01:09:65
  TRACK 58 AUDIO
    TITLE "7:cjc079_0562"
    INDEX 01 01:11:31
  TRACK 59 AUDIO
    TITLE "0:"
    INDEX 01 01:12:46
  TRACK 60 AUDIO
    TITLE "7:cjc079_0563"
    INDEX 01 01:13:14
  TRACK 61 AUDIO
    TITLE "0:"
    INDEX 01 01:14:29
  TRACK 62 AUDIO
    TITLE "7:cjc079_0564"
    INDEX 01 01:15:72
  TRACK 63 AUDIO
    TITLE "0:"
    INDEX 01 01:17:16
  TRACK 64 AUDIO
    TITLE "7:cjc079_0565"
    INDEX 01 01:17:59
  TRACK 65 AUDIO
    TITLE "0:"
    INDEX 01 01:19:01
  TRACK 66 AUDIO
    TITLE "7:cjc079_0566"
    INDEX 01 01:20:48
  TRACK 67 AUDIO
    TITLE "0:"
    INDEX 01 01:21:63
  TRACK 68 AUDIO
    TITLE "7:cjc079_0567"
    INDEX 01 01:22:37
  TRACK 69 AUDIO
    TITLE "0:"
    INDEX 01 01:23:52
